<svg width="1386" height="1386" xmlns="http://www.w3.org/2000/svg" xmlns:xlink="http://www.w3.org/1999/xlink" xml:space="preserve" overflow="hidden"><defs><clipPath id="clip0"><rect x="1270" y="319" width="1386" height="1386"/></clipPath><linearGradient x1="1270.21" y1="319.208" x2="2655.79" y2="1704.79" gradientUnits="userSpaceOnUse" spreadMethod="reflect" id="stroke1"><stop offset="0" stop-color="#00B0F0"/><stop offset="0.015873" stop-color="#00AFEF"/><stop offset="0.031746" stop-color="#00AFEF"/><stop offset="0.047619" stop-color="#00AFEF"/><stop offset="0.0634921" stop-color="#00AFEF"/><stop offset="0.0793651" stop-color="#00AFEF"/><stop offset="0.0952381" stop-color="#00AFEF"/><stop offset="0.111111" stop-color="#00AEEF"/><stop offset="0.126984" stop-color="#00AEEE"/><stop offset="0.142857" stop-color="#00AEEE"/><stop offset="0.15873" stop-color="#00ADEE"/><stop offset="0.174603" stop-color="#00ADEE"/><stop offset="0.190476" stop-color="#00ADED"/><stop offset="0.206349" stop-color="#00ACED"/><stop offset="0.222222" stop-color="#00ACED"/><stop offset="0.238095" stop-color="#00ABEC"/><stop offset="0.253968" stop-color="#00ABEC"/><stop offset="0.269841" stop-color="#00AAEB"/><stop offset="0.285714" stop-color="#00A9EB"/><stop offset="0.301587" stop-color="#00A9EA"/><stop offset="0.31746" stop-color="#00A8EA"/><stop offset="0.333333" stop-color="#00A7E9"/><stop offset="0.349206" stop-color="#00A7E9"/><stop offset="0.365079" stop-color="#00A6E8"/><stop offset="0.380952" stop-color="#00A5E8"/><stop offset="0.396825" stop-color="#00A4E7"/><stop offset="0.412698" stop-color="#00A3E6"/><stop offset="0.428571" stop-color="#00A2E6"/><stop offset="0.444444" stop-color="#00A2E5"/><stop offset="0.460317" stop-color="#00A1E4"/><stop offset="0.47619" stop-color="#00A0E4"/><stop offset="0.492063" stop-color="#009FE3"/><stop offset="0.507937" stop-color="#009EE2"/><stop offset="0.52381" stop-color="#009CE1"/><stop offset="0.539683" stop-color="#009BE0"/><stop offset="0.555556" stop-color="#009AE0"/><stop offset="0.571429" stop-color="#0099DF"/><stop offset="0.587302" stop-color="#0098DE"/><stop offset="0.603175" stop-color="#0097DD"/><stop offset="0.619048" stop-color="#0095DC"/><stop offset="0.634921" stop-color="#0094DB"/><stop offset="0.650794" stop-color="#0093DA"/><stop offset="0.666667" stop-color="#0092D9"/><stop offset="0.68254" stop-color="#0090D8"/><stop offset="0.698413" stop-color="#008FD7"/><stop offset="0.714286" stop-color="#008DD6"/><stop offset="0.730159" stop-color="#008CD5"/><stop offset="0.746032" stop-color="#008BD4"/><stop offset="0.761905" stop-color="#0089D3"/><stop offset="0.777778" stop-color="#0088D2"/><stop offset="0.793651" stop-color="#0086D0"/><stop offset="0.809524" stop-color="#0084CF"/><stop offset="0.825397" stop-color="#0083CE"/><stop offset="0.84127" stop-color="#0081CD"/><stop offset="0.857143" stop-color="#0080CC"/><stop offset="0.873016" stop-color="#007ECA"/><stop offset="0.888889" stop-color="#007CC9"/><stop offset="0.904762" stop-color="#007AC8"/><stop offset="0.920635" stop-color="#0079C6"/><stop offset="0.936508" stop-color="#0077C5"/><stop offset="0.952381" stop-color="#0075C4"/><stop offset="0.968254" stop-color="#0073C2"/><stop offset="0.984127" stop-color="#0071C1"/><stop offset="1" stop-color="#0070C0"/></linearGradient><linearGradient x1="1604.79" y1="650.644" x2="2319.79" y2="1365.64" gradientUnits="userSpaceOnUse" spreadMethod="reflect" id="fill2"><stop offset="0" stop-color="#00B0F0"/><stop offset="0.015873" stop-color="#00AFEF"/><stop offset="0.031746" stop-color="#00AFEF"/><stop offset="0.047619" stop-color="#00AFEF"/><stop offset="0.0634921" stop-color="#00AFEF"/><stop offset="0.0793651" stop-color="#00AFEF"/><stop offset="0.0952381" stop-color="#00AFEF"/><stop offset="0.111111" stop-color="#00AEEF"/><stop offset="0.126984" stop-color="#00AEEE"/><stop offset="0.142857" stop-color="#00AEEE"/><stop offset="0.15873" stop-color="#00ADEE"/><stop offset="0.174603" stop-color="#00ADEE"/><stop offset="0.190476" stop-color="#00ADED"/><stop offset="0.206349" stop-color="#00ACED"/><stop offset="0.222222" stop-color="#00ACED"/><stop offset="0.238095" stop-color="#00ABEC"/><stop offset="0.253968" stop-color="#00ABEC"/><stop offset="0.269841" stop-color="#00AAEB"/><stop offset="0.285714" stop-color="#00A9EB"/><stop offset="0.301587" stop-color="#00A9EA"/><stop offset="0.31746" stop-color="#00A8EA"/><stop offset="0.333333" stop-color="#00A7E9"/><stop offset="0.349206" stop-color="#00A7E9"/><stop offset="0.365079" stop-color="#00A6E8"/><stop offset="0.380952" stop-color="#00A5E8"/><stop offset="0.396825" stop-color="#00A4E7"/><stop offset="0.412698" stop-color="#00A3E6"/><stop offset="0.428571" stop-color="#00A2E6"/><stop offset="0.444444" stop-color="#00A2E5"/><stop offset="0.460317" stop-color="#00A1E4"/><stop offset="0.47619" stop-color="#00A0E4"/><stop offset="0.492063" stop-color="#009FE3"/><stop offset="0.507937" stop-color="#009EE2"/><stop offset="0.52381" stop-color="#009CE1"/><stop offset="0.539683" stop-color="#009BE0"/><stop offset="0.555556" stop-color="#009AE0"/><stop offset="0.571429" stop-color="#0099DF"/><stop offset="0.587302" stop-color="#0098DE"/><stop offset="0.603175" stop-color="#0097DD"/><stop offset="0.619048" stop-color="#0095DC"/><stop offset="0.634921" stop-color="#0094DB"/><stop offset="0.650794" stop-color="#0093DA"/><stop offset="0.666667" stop-color="#0092D9"/><stop offset="0.68254" stop-color="#0090D8"/><stop offset="0.698413" stop-color="#008FD7"/><stop offset="0.714286" stop-color="#008DD6"/><stop offset="0.730159" stop-color="#008CD5"/><stop offset="0.746032" stop-color="#008BD4"/><stop offset="0.761905" stop-color="#0089D3"/><stop offset="0.777778" stop-color="#0088D2"/><stop offset="0.793651" stop-color="#0086D0"/><stop offset="0.809524" stop-color="#0084CF"/><stop offset="0.825397" stop-color="#0083CE"/><stop offset="0.84127" stop-color="#0081CD"/><stop offset="0.857143" stop-color="#0080CC"/><stop offset="0.873016" stop-color="#007ECA"/><stop offset="0.888889" stop-color="#007CC9"/><stop offset="0.904762" stop-color="#007AC8"/><stop offset="0.920635" stop-color="#0079C6"/><stop offset="0.936508" stop-color="#0077C5"/><stop offset="0.952381" stop-color="#0075C4"/><stop offset="0.968254" stop-color="#0073C2"/><stop offset="0.984127" stop-color="#0071C1"/><stop offset="1" stop-color="#0070C0"/></linearGradient></defs><g clip-path="url(#clip0)" transform="translate(-1270 -319)"><path d="M1327.5 1012C1327.5 661.023 1612.02 376.5 1963 376.5 2313.98 376.5 2598.5 661.023 2598.5 1012 2598.5 1362.98 2313.98 1647.5 1963 1647.5 1612.02 1647.5 1327.5 1362.98 1327.5 1012Z" stroke="url(#stroke1)" stroke-width="114.583" stroke-miterlimit="8" fill="none" fill-rule="evenodd"/><path d="M2141.59 826.562C2121.72 826.562 2106.13 832.323 2094.8 843.846 2083.48 855.369 2077.82 871.262 2077.82 891.526L2077.82 1078.67C2077.82 1098.93 2083.28 1114.73 2094.21 1126.05 2105.13 1137.38 2120.93 1143.04 2141.59 1143.04 2162.25 1143.04 2178.04 1137.38 2188.97 1126.05 2199.9 1114.73 2205.36 1098.93 2205.36 1078.67L2205.36 891.526C2205.36 871.262 2199.7 855.369 2188.37 843.846 2177.05 832.323 2161.45 826.562 2141.59 826.562ZM1636.97 767.558 1734.12 767.558 1782.99 954.702 1832.46 767.558 1930.2 767.558 1930.2 1202.64 1860.47 1202.64 1860.47 1019.67C1860.47 994.634 1861.17 968.708 1862.56 941.888 1863.95 915.068 1865.64 889.043 1867.62 863.812 1869.61 838.581 1871.8 815.635 1874.18 794.974L1812.79 1013.71 1751.4 1013.71 1692.4 800.338C1695.98 827.754 1699.25 860.435 1702.23 898.38 1705.21 936.325 1706.7 976.754 1706.7 1019.67L1706.7 1202.64 1636.97 1202.64ZM2141.59 761.598C2169.4 761.598 2193.64 766.962 2214.3 777.69 2234.96 788.418 2251.05 803.517 2262.58 822.986 2274.1 842.455 2279.86 865.302 2279.86 891.526L2279.86 1078.67C2279.86 1104.89 2274.2 1127.84 2262.87 1147.51 2251.55 1167.18 2235.56 1182.18 2214.9 1192.51L2287.01 1309.92 2206.55 1309.92 2145.16 1208.6C2143.97 1208.6 2142.78 1208.6 2141.59 1208.6 2113.77 1208.6 2089.54 1203.23 2068.88 1192.51 2048.21 1181.78 2032.12 1166.68 2020.6 1147.21 2009.08 1127.74 2003.32 1104.89 2003.32 1078.67L2003.32 891.526C2003.32 865.302 2008.98 842.455 2020.3 822.986 2031.63 803.517 2047.72 788.418 2068.58 777.69 2089.44 766.962 2113.77 761.598 2141.59 761.598Z" fill="url(#fill2)" fill-rule="evenodd"/><text fill="#000000" fill-opacity="0" font-family="Arial,Arial_MSFontService,sans-serif" font-size="548.32" x="1636.97" y="1241.38">MQ</text></g></svg>